<?xml version="1.0" encoding="UTF-8"?>
<svg id="Layer_1" data-name="Layer 1" xmlns="http://www.w3.org/2000/svg" viewBox="0 0 1975.4 419.96">
  <defs>
    <style>
      .cls-1 {
        fill: #d3521c;
      }

      .cls-2 {
        fill: #f1ece3;
      }
    </style>
  </defs>
  <path class="cls-2" d="M1760.32,255.66c-5.92-37.21-40.71-63.07-76.54-57.75-33.16,4.93-56.66,30.67-57.95,63.53l-.08,156.57-78.68.3.07-342.15c1.01-22.84,9.83-42.44,25.18-57.8,16.13-12.69,34.76-20.2,55.11-17.97l.58,131.91c61.75-28.61,135.12-13.55,178.95,38.33,18.44,21.83,28.47,47.38,32.65,75.73l-.04,171.95-79.17-.31-.1-162.35Z"/>
  <path class="cls-2" d="M661.14,417.95c-17.23.33-32.04-7.89-43.41-22.02-75.92,45.01-176.4,15.33-213.64-63.61-25.6-54.28-16.59-116.08,21.62-161.25,55.3-65.38,153.73-72.01,217.41-14.61,27.34,24.65,47.05,58.64,47.24,96.3l.86,164.63-30.09.57ZM597.48,224.89c-15.12-18.28-34.8-28.43-56.37-28.16-21.12.26-40.43,9.5-54.76,26.49-19.92,23.62-21.16,58.34-3.78,83.4,17.32,24.97,48.42,36.76,78.42,27.86,22.98-6.82,39.82-23.58,46.53-42.52,8.49-23.95,5.47-48.31-10.04-67.06Z"/>
  <path class="cls-2" d="M950.04,124.48l79.04-.12-.72,155.64c-.18,39.76-19.81,76.62-49.85,102.77-57.1,49.69-143.03,48.37-200.06-1.68-26.16-22.96-45.36-55.93-45.58-91.51l-.98-165.05,80.02-.21.72,153.92c.11,23.28,16.76,42.68,33.74,52.43,22.39,12.85,47.52,11.23,68.53-.28,23.58-12.92,35.46-35.84,35.41-62.52l-.26-143.39Z"/>
  <path class="cls-2" d="M1326.72,227.06c-25.55,33.26-15.12,78.61,18.19,100.31,33.92,22.1,78.41,11.37,100.22-25.71l69.06,38.46c-24.54,48.07-74.81,77.07-127.3,78.75-54.42,1.75-106.18-26.43-133.67-73.69-42.72-73.46-16.63-166.28,55.85-207.03,72.42-40.71,165.25-14.52,205.39,60.45l-68.5,38.53c-13.37-21.62-32.79-35.73-55.54-38.06-24.59-2.53-47.77,7.25-63.71,27.99Z"/>
  <path class="cls-2" d="M73.35,194.55c4.55-.43,106.52,0,106.52,0l33.53,82.43c2.23,5.47,5.18,8.38,10.47,8.54,4.7.14,8.86-2.56,11.11-7.87l45.01-105.89c11.81-27.79,38.29-47.16,68.49-47.01l62.64.3c-17.5,13.66-30.02,26.08-38.36,45.08l-92.61,210.85c-10.51,23.92-27.38,39.37-55.98,38.6-18.33-.49-43.27-5.86-51.8-25.66l-74.7-173.37c-4.79-11.11-12.41-22.22-24.31-26.01Z"/>
  <path class="cls-2" d="M1150.64,157.74l1.03,122.43c.31,36.89,34.32,61.83,70.26,58.99l.29,79.71c-24.17.56-46.67-2.32-68.34-11.55-51.54-21.43-83.09-70.45-83.08-126.53V84.55c.01-49.05,33.05-87.52,81.53-83.72l-.44,78.99,91.64,1.01c6.69,37.35-21.16,75.51-56.19,76.2l-36.71.72Z"/>
  <path class="cls-1" d="M1974.52,419.8l-39.81-27.1-40.01,27.26-1.11-95.78c-.07-6.36,4.5-10.74,10.63-10.73l62.46.09c4.66,0,8.76,3.52,8.71,8.41l-.88,97.85Z"/>
  <path class="cls-1" d="M173.42,176.58c-9.58-28-30.49-53.19-61.35-56.5-20.89-2.24-112.08-.15-112.08-.15l25.21,37L1.18,194.77l178.69-.22c-2.34-7.17-4.08-11.06-6.44-17.98Z"/>
</svg>