<svg width="13" height="13" viewBox="0 0 13 13" fill="none" xmlns="http://www.w3.org/2000/svg">
<path d="M12.8268 1.00925L9.10799 4.72736H11.227C11.3837 4.72736 11.534 4.78962 11.6448 4.90043C11.7557 5.01124 11.8179 5.16153 11.8179 5.31824C11.8179 5.47495 11.7557 5.62524 11.6448 5.73606C11.534 5.84687 11.3837 5.90912 11.227 5.90912H7.68176C7.52505 5.90912 7.37475 5.84687 7.26394 5.73606C7.15313 5.62524 7.09088 5.47495 7.09088 5.31824V1.77297C7.09088 1.61626 7.15313 1.46596 7.26394 1.35515C7.37475 1.24434 7.52505 1.18209 7.68176 1.18209C7.83847 1.18209 7.98876 1.24434 8.09957 1.35515C8.21038 1.46596 8.27264 1.61626 8.27264 1.77297V3.89201L11.9907 0.173161C12.1016 0.0622877 12.252 -3.09086e-09 12.4088 0C12.5656 3.09086e-09 12.716 0.0622877 12.8268 0.173161C12.9377 0.284034 13 0.43441 13 0.591208C13 0.748006 12.9377 0.898382 12.8268 1.00925ZM5.31824 7.09088H1.77297C1.61626 7.09088 1.46596 7.15313 1.35515 7.26394C1.24434 7.37475 1.18209 7.52505 1.18209 7.68176C1.18209 7.83847 1.24434 7.98876 1.35515 8.09957C1.46596 8.21038 1.61626 8.27264 1.77297 8.27264H3.89201L0.173161 11.9907C0.0622877 12.1016 -3.09086e-09 12.252 0 12.4088C3.09086e-09 12.5656 0.0622877 12.716 0.173161 12.8268C0.284034 12.9377 0.43441 13 0.591208 13C0.748006 13 0.898382 12.9377 1.00925 12.8268L4.72736 9.10799V11.227C4.72736 11.3837 4.78962 11.534 4.90043 11.6448C5.01124 11.7557 5.16153 11.8179 5.31824 11.8179C5.47495 11.8179 5.62524 11.7557 5.73606 11.6448C5.84687 11.534 5.90912 11.3837 5.90912 11.227V7.68176C5.90912 7.52505 5.84687 7.37475 5.73606 7.26394C5.62524 7.15313 5.47495 7.09088 5.31824 7.09088Z" fill="#444342"/>
</svg>
