<svg width="10" height="16" viewBox="0 0 10 16" fill="none" xmlns="http://www.w3.org/2000/svg">
<path d="M3 1.5C3 1.79667 2.91203 2.08668 2.74721 2.33336C2.58238 2.58003 2.34812 2.77229 2.07403 2.88582C1.79994 2.99935 1.49834 3.02906 1.20737 2.97118C0.916394 2.9133 0.64912 2.77044 0.439341 2.56066C0.229562 2.35088 0.0867006 2.08361 0.0288228 1.79264C-0.0290551 1.50166 0.000649922 1.20006 0.114181 0.925976C0.227713 0.651886 0.419972 0.417619 0.666646 0.252797C0.913319 0.0879744 1.20333 8.08342e-07 1.5 8.08342e-07C1.89783 8.08342e-07 2.27936 0.158036 2.56066 0.439341C2.84197 0.720645 3 1.10218 3 1.5ZM8.25 3C8.54667 3 8.83668 2.91203 9.08336 2.74721C9.33003 2.58238 9.52229 2.34811 9.63582 2.07403C9.74935 1.79994 9.77906 1.49834 9.72118 1.20737C9.6633 0.916394 9.52044 0.649119 9.31066 0.439341C9.10088 0.229562 8.83361 0.0867006 8.54264 0.0288228C8.25167 -0.0290551 7.95006 0.000649922 7.67598 0.114181C7.40189 0.227713 7.16762 0.419972 7.0028 0.666646C6.83797 0.913319 6.75 1.20333 6.75 1.5C6.75 1.89783 6.90804 2.27936 7.18934 2.56066C7.47065 2.84197 7.85218 3 8.25 3ZM1.5 6.375C1.20333 6.375 0.913319 6.46297 0.666646 6.6278C0.419972 6.79262 0.227713 7.02689 0.114181 7.30098C0.000649922 7.57506 -0.0290551 7.87666 0.0288228 8.16764C0.0867006 8.45861 0.229562 8.72588 0.439341 8.93566C0.64912 9.14544 0.916394 9.2883 1.20737 9.34618C1.49834 9.40406 1.79994 9.37435 2.07403 9.26082C2.34812 9.14729 2.58238 8.95503 2.74721 8.70836C2.91203 8.46168 3 8.17167 3 7.875C3 7.47718 2.84197 7.09565 2.56066 6.81434C2.27936 6.53304 1.89783 6.375 1.5 6.375ZM8.25 6.375C7.95333 6.375 7.66332 6.46297 7.41665 6.6278C7.16997 6.79262 6.97771 7.02689 6.86418 7.30098C6.75065 7.57506 6.72095 7.87666 6.77882 8.16764C6.8367 8.45861 6.97956 8.72588 7.18934 8.93566C7.39912 9.14544 7.66639 9.2883 7.95737 9.34618C8.24834 9.40406 8.54994 9.37435 8.82403 9.26082C9.09812 9.14729 9.33238 8.95503 9.49721 8.70836C9.66203 8.46168 9.75 8.17167 9.75 7.875C9.75 7.47718 9.59197 7.09565 9.31066 6.81434C9.02936 6.53304 8.64783 6.375 8.25 6.375ZM1.5 12.75C1.20333 12.75 0.913319 12.838 0.666646 13.0028C0.419972 13.1676 0.227713 13.4019 0.114181 13.676C0.000649922 13.9501 -0.0290551 14.2517 0.0288228 14.5426C0.0867006 14.8336 0.229562 15.1009 0.439341 15.3107C0.64912 15.5204 0.916394 15.6633 1.20737 15.7212C1.49834 15.7791 1.79994 15.7494 2.07403 15.6358C2.34812 15.5223 2.58238 15.33 2.74721 15.0834C2.91203 14.8367 3 14.5467 3 14.25C3 13.8522 2.84197 13.4706 2.56066 13.1893C2.27936 12.908 1.89783 12.75 1.5 12.75ZM8.25 12.75C7.95333 12.75 7.66332 12.838 7.41665 13.0028C7.16997 13.1676 6.97771 13.4019 6.86418 13.676C6.75065 13.9501 6.72095 14.2517 6.77882 14.5426C6.8367 14.8336 6.97956 15.1009 7.18934 15.3107C7.39912 15.5204 7.66639 15.6633 7.95737 15.7212C8.24834 15.7791 8.54994 15.7494 8.82403 15.6358C9.09812 15.5223 9.33238 15.33 9.49721 15.0834C9.66203 14.8367 9.75 14.5467 9.75 14.25C9.75 13.8522 9.59197 13.4706 9.31066 13.1893C9.02936 12.908 8.64783 12.75 8.25 12.75Z" fill="#9E9E9E"/>
</svg>
