<svg width="10" height="10" viewBox="0 0 10 10" fill="none" xmlns="http://www.w3.org/2000/svg">
<path d="M8.33333 5.41667V9.16667C8.33333 9.38768 8.24554 9.59964 8.08926 9.75592C7.93297 9.9122 7.72101 10 7.5 10H0.833333C0.61232 10 0.400358 9.9122 0.244078 9.75592C0.0877973 9.59964 0 9.38768 0 9.16667V2.5C0 2.27899 0.0877973 2.06702 0.244078 1.91074C0.400358 1.75446 0.61232 1.66667 0.833333 1.66667H4.58333C4.69384 1.66667 4.79982 1.71057 4.87796 1.78871C4.9561 1.86685 5 1.97283 5 2.08333C5 2.19384 4.9561 2.29982 4.87796 2.37796C4.79982 2.4561 4.69384 2.5 4.58333 2.5H0.833333V9.16667H7.5V5.41667C7.5 5.30616 7.5439 5.20018 7.62204 5.12204C7.70018 5.0439 7.80616 5 7.91667 5C8.02717 5 8.13315 5.0439 8.21129 5.12204C8.28943 5.20018 8.33333 5.30616 8.33333 5.41667ZM10 0.416667C10 0.30616 9.9561 0.200179 9.87796 0.122039C9.79982 0.0438989 9.69384 1.29084e-07 9.58333 1.29084e-07H6.25C6.16754 -6.47615e-05 6.08692 0.0243372 6.01834 0.0701166C5.94976 0.115896 5.8963 0.180995 5.86474 0.257171C5.83318 0.333347 5.82493 0.417176 5.84103 0.498045C5.85713 0.578913 5.89687 0.653185 5.95521 0.711458L7.3276 2.08333L5.12187 4.28854C5.04369 4.36672 4.99977 4.47276 4.99977 4.58333C4.99977 4.6939 5.04369 4.79994 5.12187 4.87813C5.20006 4.95631 5.3061 5.00023 5.41667 5.00023C5.52723 5.00023 5.63327 4.95631 5.71146 4.87813L7.91667 2.6724L9.28854 4.04479C9.34681 4.10313 9.42109 4.14287 9.50196 4.15897C9.58282 4.17507 9.66665 4.16682 9.74283 4.13526C9.81901 4.1037 9.8841 4.05024 9.92988 3.98166C9.97566 3.91308 10.0001 3.83246 10 3.75V0.416667Z" fill="#D2521C"/>
</svg>
