<svg width="12" height="13" viewBox="0 0 12 13" fill="none" xmlns="http://www.w3.org/2000/svg">
<path d="M12 0.590909V4.13636C12 4.29308 11.9425 4.44338 11.8402 4.5542C11.7379 4.66502 11.5992 4.72727 11.4545 4.72727C11.3099 4.72727 11.1711 4.66502 11.0689 4.5542C10.9666 4.44338 10.9091 4.29308 10.9091 4.13636V2.01722L7.47682 5.73625C7.37447 5.84713 7.23565 5.90942 7.09091 5.90942C6.94617 5.90942 6.80735 5.84713 6.705 5.73625C6.60265 5.62537 6.54515 5.47499 6.54515 5.31818C6.54515 5.16138 6.60265 5.01099 6.705 4.90011L10.138 1.18182H8.18182C8.03715 1.18182 7.89842 1.11956 7.79612 1.00874C7.69383 0.897928 7.63636 0.747628 7.63636 0.590909C7.63636 0.43419 7.69383 0.28389 7.79612 0.173073C7.89842 0.0622564 8.03715 0 8.18182 0H11.4545C11.5992 0 11.7379 0.0622564 11.8402 0.173073C11.9425 0.28389 12 0.43419 12 0.590909ZM4.52318 7.26375L1.09091 10.9828V8.86364C1.09091 8.70692 1.03344 8.55662 0.931149 8.4458C0.828857 8.33498 0.690118 8.27273 0.545455 8.27273C0.400791 8.27273 0.262053 8.33498 0.15976 8.4458C0.0574675 8.55662 0 8.70692 0 8.86364V12.4091C0 12.5658 0.0574675 12.7161 0.15976 12.8269C0.262053 12.9377 0.400791 13 0.545455 13H3.81818C3.96285 13 4.10158 12.9377 4.20388 12.8269C4.30617 12.7161 4.36364 12.5658 4.36364 12.4091C4.36364 12.2524 4.30617 12.1021 4.20388 11.9913C4.10158 11.8804 3.96285 11.8182 3.81818 11.8182H1.86205L5.295 8.09989C5.39735 7.98901 5.45485 7.83862 5.45485 7.68182C5.45485 7.52501 5.39735 7.37463 5.295 7.26375C5.19265 7.15287 5.05384 7.09058 4.90909 7.09058C4.76435 7.09058 4.62553 7.15287 4.52318 7.26375Z" fill="#444342"/>
</svg>
